<svg height="512pt" viewBox="0 0 512 512" width="512pt" xmlns="http://www.w3.org/2000/svg"><path d="m255.59375 144.289062 56.199219 29.546876-10.734375-62.582032 45.46875-44.316406-62.785156-9.125-28.148438-57.8125-28.152344 57.8125-62.785156 9.125 45.46875 44.316406-10.734375 62.582032zm-8.160156-59.113281 8.160156-16.753906 8.15625 16.753906 18.40625 2.675781-13.28125 12.945313 3.132812 18.28125-16.414062-8.632813-16.417969 8.632813 3.136719-18.28125-13.28125-12.945313zm0 0"/><path d="m445.429688 159.605469-28.078126-56.886719-28.101562 56.933594-62.835938 9.132812 45.46875 44.316406-10.734374 62.582032 56.203124-29.546875 56.199219 29.546875-10.6875-62.320313 48.320313-44.578125zm-11.660157 61.320312-16.417969-8.632812-16.414062 8.632812 3.132812-18.28125-13.28125-12.945312 18.355469-2.667969 8.207031-16.628906 8.234376 16.679687 18.753906 2.617188-13.75 12.6875zm0 0"/><path d="m48.320312 213.363281-10.6875 62.320313 56.199219-29.546875 56.203125 29.546875-10.734375-62.578125 45.46875-44.320313-62.835937-9.132812-28.101563-56.933594-28.074219 56.886719-65.757812 9.179687zm37.28125-26.28125 8.230469-16.679687 8.210938 16.628906 18.351562 2.667969-13.28125 12.945312 3.136719 18.28125-16.414062-8.632812-16.417969 8.632812 3.179687-18.542969-13.75-12.683593zm0 0"/><path d="m165.726562 362.222656c0-33.035156-26.875-59.910156-59.910156-59.910156s-59.910156 26.875-59.910156 59.910156 26.875 59.910156 59.910156 59.910156 59.910156-26.875 59.910156-59.910156zm-59.910156 29.957032c-16.519531 0-29.957031-13.4375-29.957031-29.957032 0-16.515625 13.4375-29.953125 29.957031-29.953125 16.515625 0 29.953125 13.4375 29.953125 29.953125 0 16.519532-13.4375 29.957032-29.953125 29.957032zm0 0"/><path d="m465.28125 362.222656c0-33.035156-26.878906-59.910156-59.914062-59.910156-33.03125 0-59.910157 26.875-59.910157 59.910156s26.878907 59.910156 59.910157 59.910156c33.035156 0 59.914062-26.875 59.914062-59.910156zm-59.914062 29.957032c-16.515626 0-29.953126-13.4375-29.953126-29.957032 0-16.515625 13.4375-29.953125 29.953126-29.953125 16.519531 0 29.957031 13.4375 29.957031 29.953125 0 16.519532-13.4375 29.957032-29.957031 29.957032zm0 0"/><path d="m480.257812 497.023438c0-41.292969-33.59375-74.890626-74.890624-74.890626-18.476563 0-35.402344 6.742188-48.476563 17.878907-11.960937-44.742188-52.839844-77.789063-101.296875-77.789063-48.460938 0-89.339844 33.050782-101.296875 77.789063-13.078125-11.136719-30.003906-17.878907-48.480469-17.878907-41.292968 0-74.890625 33.597657-74.890625 74.890626v14.976562h449.332031zm-416.808593-14.980469c6.179687-17.433594 22.839843-29.953125 42.367187-29.953125s36.183594 12.519531 42.367188 29.953125zm117.253906 0v-14.976563c0-41.292968 33.59375-74.886718 74.890625-74.886718 41.292969 0 74.886719 33.59375 74.886719 74.886718v14.976563zm182.300781 0c6.179688-17.433594 22.839844-29.953125 42.367188-29.953125s36.183594 12.519531 42.367187 29.953125zm0 0"/><path d="m330.480469 286.335938c0-41.292969-33.59375-74.886719-74.886719-74.886719-41.296875 0-74.890625 33.59375-74.890625 74.886719 0 41.398437 33.484375 75.886718 74.890625 75.886718 41.394531 0 74.886719-34.480468 74.886719-75.886718zm-74.886719 45.933593c-24.359375 0-44.933594-21.035156-44.933594-45.933593 0-24.777344 20.15625-44.933594 44.933594-44.933594 24.773438 0 44.929688 20.15625 44.929688 44.933594 0 24.898437-20.574219 45.933593-44.929688 45.933593zm0 0"/></svg>